<?xml version="1.0" encoding="utf-8"?>
<!-- Generator: Adobe Illustrator 27.0.1, SVG Export Plug-In . SVG Version: 6.00 Build 0)  -->
<svg version="1.1" id="_Слой_1" xmlns="http://www.w3.org/2000/svg" xmlns:xlink="http://www.w3.org/1999/xlink" x="0px"
	 y="0px" viewBox="0 0 697.2 57.1" style="enable-background:new 0 0 697.2 57.1;" xml:space="preserve">
<style type="text/css">
	.st0{fill:#333333;}
</style>
<g>
	<path class="st0" d="M44.6,3.1v50.4h-9.2V11H9.2v42.5H0V3.1H44.6z"/>
	<path class="st0" d="M90.9,5.2c3.2,1.4,5.7,3.5,7.4,6.2c1.7,2.7,2.6,5.9,2.6,9.6s-0.9,6.8-2.6,9.5c-1.7,2.7-4.2,4.8-7.4,6.2
		s-7,2.2-11.4,2.2H68.1v14.5h-9.4V3.1h20.7C83.9,3.1,87.7,3.8,90.9,5.2L90.9,5.2z M88.3,28.4c2.1-1.7,3.2-4.2,3.2-7.4
		s-1.1-5.7-3.2-7.4S83.1,11,79.1,11H68.1v20h10.9C83.1,31,86.2,30.1,88.3,28.4L88.3,28.4z"/>
	<path class="st0" d="M170.4,5.6h9.2v35.8l27.1-35.8h8.7V56h-9.2V20.3L179.1,56h-8.7V5.6L170.4,5.6z"/>
	<path class="st0" d="M274.3,5.6V56H265V34.4h-26.1V56h-9.4V5.6h9.4v20.8H265V5.6L274.3,5.6L274.3,5.6z"/>
	<path class="st0" d="M297.8,53.4c-4.1-2.2-7.3-5.3-9.6-9.2c-2.3-3.9-3.5-8.4-3.5-13.3s1.2-9.4,3.5-13.3s5.6-7,9.7-9.2
		s8.7-3.4,13.8-3.4c4.1,0,7.9,0.7,11.3,2.2c3.4,1.4,6.3,3.5,8.6,6.3l-6,5.7c-3.6-3.9-8.1-5.9-13.5-5.9c-3.5,0-6.5,0.8-9.3,2.3
		c-2.7,1.5-4.9,3.6-6.4,6.3s-2.3,5.7-2.3,9.1s0.8,6.5,2.3,9.1c1.5,2.7,3.7,4.8,6.4,6.3s5.8,2.3,9.3,2.3c5.3,0,9.8-2,13.5-6l6,5.8
		c-2.4,2.7-5.2,4.8-8.7,6.3c-3.4,1.4-7.2,2.2-11.3,2.2C306.5,56.7,301.9,55.6,297.8,53.4L297.8,53.4z"/>
	<path class="st0" d="M376.3,13.5h-16.7V56h-9.3V13.5h-16.6V5.6h42.6L376.3,13.5L376.3,13.5z"/>
	<path class="st0" d="M416.5,7.8c3.2,1.4,5.7,3.5,7.5,6.2s2.6,5.9,2.6,9.6s-0.9,6.8-2.6,9.5c-1.7,2.7-4.2,4.8-7.5,6.2
		s-7,2.2-11.4,2.2h-11.4V56h-9.4V5.6h20.7C409.5,5.6,413.3,6.3,416.5,7.8z M414,31c2.1-1.7,3.2-4.2,3.2-7.4s-1.1-5.7-3.2-7.4
		c-2.1-1.7-5.2-2.6-9.3-2.6h-10.9v20h10.9C408.8,33.5,411.9,32.7,414,31L414,31z"/>
	<path class="st0" d="M477.6,5.6l-21.9,40.7c-1.9,3.6-4.2,6.3-6.9,8.1c-2.7,1.8-5.6,2.7-8.7,2.7c-2.5,0-5-0.5-7.4-1.6l2.3-7.3
		c2,0.6,3.6,0.9,4.9,0.9c3,0,5.5-1.6,7.5-4.7l0.8-1.2L428.2,5.6h10l14.9,29.6l15.3-29.6L477.6,5.6L477.6,5.6z"/>
	<path class="st0" d="M530.4,56l-0.1-33.4l-16.6,27.6h-4.2L493,23v33h-8.9V5.6h7.7L511.8,39l19.7-33.3h7.6l0.1,50.4L530.4,56
		L530.4,56z"/>
	<path class="st0" d="M591.3,48.2V56h-37.8V5.6h36.8v7.9h-27.4v13.1h24.3v7.7h-24.3v13.9H591.3z"/>
	<path class="st0" d="M646.5,5.6V56h-9.4V34.4h-26.1V56h-9.4V5.6h9.4v20.8h26.1V5.6L646.5,5.6L646.5,5.6z"/>
	<path class="st0" d="M697.2,13.5h-16.7V56h-9.3V13.5h-16.6V5.6h42.6V13.5z"/>
</g>
<path class="st0" d="M161,33.3v-7.6l-6.9-1.5l-2.2-5.3l3.9-5.9l-5.5-5.4l-5.9,3.9l-5.3-2.3l-1.4-6.8h-7.6l-1.5,6.8l-5.1,2l-6.1-3.3
	l-5.4,5.2l3.9,5.9l-2,5.1l-7.1,1.4v7.9l6.8,1.4l2.3,5.3l-3.9,5.9l5.6,5.5l5.9-3.9l5.1,2.5l1.3,6.9l8.1-0.3l1.3-6.6l5.6-2.1l5.6,3.5
	l5.5-5.3l-3.7-6.3l2-5L161,33.3L161,33.3z M133.9,42.6c-7.2,0-13.1-5.9-13.1-13.1s5.8-13.1,13.1-13.1s13.1,5.9,13.1,13.1
	S141.1,42.6,133.9,42.6z"/>
</svg>
