<?xml version="1.0" encoding="UTF-8"?>
<svg id="_Слой_1" data-name="Слой 1" xmlns="http://www.w3.org/2000/svg" viewBox="0 0 697.17 180.44">
  <defs>
    <style>
      .cls-1 {
        fill: #d9a404;
      }
    </style>
  </defs>
  <g>
    <path class="cls-1" d="M44.57,126.4v50.4h-9.22v-42.48H9.22v42.48H0v-50.4H44.57Z"/>
    <path class="cls-1" d="M90.9,128.56c3.24,1.44,5.72,3.5,7.45,6.19,1.73,2.69,2.59,5.88,2.59,9.58s-.86,6.83-2.59,9.54c-1.73,2.71-4.21,4.79-7.45,6.23-3.24,1.44-7.04,2.16-11.41,2.16h-11.38v14.54h-9.36v-50.4h20.74c4.37,0,8.17,.72,11.41,2.16Zm-2.56,23.18c2.11-1.73,3.17-4.2,3.17-7.42s-1.06-5.69-3.17-7.42c-2.11-1.73-5.21-2.59-9.29-2.59h-10.94v20.02h10.94c4.08,0,7.18-.86,9.29-2.59Z"/>
    <path class="cls-1" d="M170.42,128.96h9.22v35.78l27.07-35.78h8.71v50.4h-9.22v-35.71l-27.07,35.71h-8.71v-50.4Z"/>
    <path class="cls-1" d="M274.32,128.96v50.4h-9.36v-21.6h-26.06v21.6h-9.36v-50.4h9.36v20.81h26.06v-20.81h9.36Z"/>
    <path class="cls-1" d="M297.83,176.73c-4.1-2.23-7.32-5.32-9.65-9.25-2.33-3.94-3.49-8.38-3.49-13.32s1.18-9.38,3.53-13.32c2.35-3.94,5.58-7.02,9.68-9.25s8.7-3.35,13.79-3.35c4.13,0,7.89,.72,11.3,2.16,3.41,1.44,6.29,3.53,8.64,6.26l-6.05,5.69c-3.65-3.94-8.14-5.9-13.46-5.9-3.46,0-6.55,.76-9.29,2.27-2.74,1.51-4.87,3.61-6.41,6.3-1.54,2.69-2.3,5.74-2.3,9.14s.77,6.46,2.3,9.14c1.54,2.69,3.67,4.79,6.41,6.3s5.83,2.27,9.29,2.27c5.33,0,9.81-1.99,13.46-5.98l6.05,5.76c-2.35,2.74-5.24,4.82-8.68,6.26-3.43,1.44-7.21,2.16-11.34,2.16-5.09,0-9.68-1.12-13.79-3.35Z"/>
    <path class="cls-1" d="M376.34,136.88h-16.7v42.48h-9.29v-42.48h-16.63v-7.92h42.62v7.92Z"/>
    <path class="cls-1" d="M416.55,131.12c3.24,1.44,5.72,3.5,7.45,6.19,1.73,2.69,2.59,5.88,2.59,9.58s-.86,6.83-2.59,9.54c-1.73,2.71-4.21,4.79-7.45,6.23s-7.04,2.16-11.41,2.16h-11.38v14.54h-9.36v-50.4h20.74c4.37,0,8.17,.72,11.41,2.16Zm-2.56,23.18c2.11-1.73,3.17-4.2,3.17-7.42s-1.06-5.69-3.17-7.42c-2.11-1.73-5.21-2.59-9.29-2.59h-10.94v20.02h10.94c4.08,0,7.17-.86,9.29-2.59Z"/>
    <path class="cls-1" d="M477.64,128.96l-21.89,40.68c-1.92,3.6-4.21,6.3-6.88,8.1-2.66,1.8-5.56,2.7-8.68,2.7-2.5,0-4.97-.53-7.42-1.58l2.3-7.34c1.97,.62,3.6,.94,4.9,.94,3.02,0,5.52-1.56,7.49-4.68l.79-1.22-20.09-37.58h10.01l14.9,29.59,15.34-29.59h9.22Z"/>
    <path class="cls-1" d="M530.42,179.36l-.07-33.41-16.56,27.65h-4.18l-16.56-27.22v32.98h-8.86v-50.4h7.7l19.94,33.34,19.73-33.34h7.63l.14,50.4h-8.93Z"/>
    <path class="cls-1" d="M591.26,171.51v7.85h-37.8v-50.4h36.79v7.85h-27.43v13.1h24.34v7.7h-24.34v13.9h28.44Z"/>
    <path class="cls-1" d="M646.48,128.96v50.4h-9.36v-21.6h-26.06v21.6h-9.36v-50.4h9.36v20.81h26.06v-20.81h9.36Z"/>
    <path class="cls-1" d="M697.17,136.88h-16.7v42.48h-9.29v-42.48h-16.63v-7.92h42.62v7.92Z"/>
  </g>
  <path class="cls-1" d="M160.99,156.62v-7.65l-6.85-1.46-2.2-5.26,3.86-5.92-5.52-5.39-5.85,3.93-5.32-2.33-1.4-6.85h-7.65l-1.53,6.85-5.12,2-6.12-3.26-5.39,5.19,3.86,5.92-2,5.12-7.05,1.4v7.92l6.79,1.4,2.33,5.32-3.93,5.85,5.59,5.46,5.92-3.93,5.12,2.53,1.33,6.85,8.05-.33,1.26-6.59,5.59-2.06,5.65,3.46,5.46-5.32-3.73-6.32,2-4.99,6.85-1.53Zm-27.14,9.35c-7.22,0-13.07-5.85-13.07-13.07s5.85-13.07,13.07-13.07,13.07,5.85,13.07,13.07-5.85,13.07-13.07,13.07Z"/>
</svg>