<?xml version="1.0" encoding="UTF-8"?>
<svg id="_Слой_2" data-name="Слой 2" xmlns="http://www.w3.org/2000/svg" viewBox="0 0 1420.17 117.11">
  <defs>
    <style>
      .cls-1 {
        fill: #d9a404;
      }
    </style>
  </defs>
  <g id="_Слой_1-2" data-name="Слой 1">
    <g>
      <path class="cls-1" d="M90.79,1.54V109.33h-18.77V18.48H18.77V109.33H0V1.54H90.79Z"/>
      <path class="cls-1" d="M185.16,6.16c6.6,3.08,11.66,7.5,15.18,13.24,3.52,5.75,5.28,12.58,5.28,20.48s-1.76,14.61-5.28,20.4c-3.52,5.8-8.58,10.24-15.18,13.32-6.6,3.08-14.35,4.62-23.25,4.62h-23.17v31.11h-19.07V1.54h42.24c8.9,0,16.65,1.54,23.25,4.62Zm-5.21,49.59c4.3-3.7,6.45-8.98,6.45-15.86s-2.15-12.17-6.45-15.86c-4.3-3.7-10.61-5.54-18.92-5.54h-22.29V61.29h22.29c8.31,0,14.62-1.85,18.92-5.54Z"/>
      <path class="cls-1" d="M347.16,7.01h18.77V83.54L421.08,7.01h17.75V114.8h-18.77V38.42l-55.15,76.38h-17.75V7.01Z"/>
      <path class="cls-1" d="M558.8,7.01V114.8h-19.07v-46.2h-53.09v46.2h-19.07V7.01h19.07V51.51h53.09V7.01h19.07Z"/>
      <path class="cls-1" d="M606.68,109.18c-8.36-4.77-14.91-11.37-19.65-19.79-4.74-8.42-7.11-17.91-7.11-28.49s2.4-20.07,7.19-28.49c4.79-8.42,11.37-15.01,19.73-19.79s17.72-7.16,28.09-7.16c8.41,0,16.08,1.54,23.03,4.62,6.94,3.08,12.81,7.55,17.6,13.4l-12.32,12.17c-7.43-8.42-16.57-12.63-27.43-12.63-7.04,0-13.35,1.62-18.92,4.85-5.57,3.23-9.93,7.73-13.05,13.47-3.13,5.75-4.69,12.27-4.69,19.56s1.56,13.81,4.69,19.56c3.13,5.75,7.48,10.24,13.05,13.47s11.88,4.85,18.92,4.85c10.85,0,19.99-4.26,27.43-12.78l12.32,12.32c-4.79,5.85-10.68,10.32-17.67,13.4-6.99,3.08-14.69,4.62-23.1,4.62-10.37,0-19.73-2.39-28.09-7.16Z"/>
      <path class="cls-1" d="M766.62,23.95h-34.02V114.8h-18.92V23.95h-33.88V7.01h86.83V23.95Z"/>
      <path class="cls-1" d="M848.53,11.63c6.6,3.08,11.66,7.5,15.18,13.24,3.52,5.75,5.28,12.58,5.28,20.48s-1.76,14.61-5.28,20.4c-3.52,5.8-8.58,10.24-15.18,13.32-6.6,3.08-14.35,4.62-23.25,4.62h-23.17v31.11h-19.07V7.01h42.24c8.9,0,16.65,1.54,23.25,4.62Zm-5.21,49.59c4.3-3.7,6.45-8.98,6.45-15.86s-2.15-12.17-6.45-15.86c-4.3-3.7-10.61-5.54-18.92-5.54h-22.29v42.81h22.29c8.31,0,14.62-1.85,18.92-5.54Z"/>
      <path class="cls-1" d="M972.98,7.01l-44.59,87c-3.91,7.7-8.58,13.47-14.01,17.32-5.43,3.85-11.32,5.78-17.67,5.78-5.09,0-10.12-1.13-15.11-3.39l4.69-15.71c4.01,1.33,7.33,2,9.97,2,6.16,0,11.24-3.33,15.25-10.01l1.61-2.62L872.22,7.01h20.39l30.36,63.29,31.24-63.29h18.77Z"/>
      <path class="cls-1" d="M1080.49,114.8l-.15-71.45-33.73,59.13h-8.51l-33.73-58.21V114.8h-18.04V7.01h15.69l40.63,71.3,40.19-71.3h15.55l.29,107.79h-18.19Z"/>
      <path class="cls-1" d="M1204.42,98.02v16.78h-77V7.01h74.95V23.79h-55.88v28.03h49.57v16.48h-49.57v29.72h57.93Z"/>
      <path class="cls-1" d="M1316.91,7.01V114.8h-19.07v-46.2h-53.09v46.2h-19.07V7.01h19.07V51.51h53.09V7.01h19.07Z"/>
      <path class="cls-1" d="M1420.17,23.95h-34.03V114.8h-18.92V23.95h-33.88V7.01h86.83V23.95Z"/>
    </g>
    <path class="cls-1" d="M327.94,66.16v-16.36l-13.96-3.13-4.47-11.24,7.86-12.66-11.25-11.53-11.93,8.4-10.84-4.98-2.85-14.66h-15.59l-3.12,14.66-10.44,4.27-12.47-6.97-10.98,11.1,7.86,12.66-4.07,10.96-14.37,2.99v16.93l13.82,2.99,4.74,11.38-8,12.52,11.38,11.67,12.06-8.4,10.44,5.41,2.71,14.66,16.4-.71,2.57-14.09,11.38-4.41,11.52,7.4,11.11-11.38-7.59-13.52,4.07-10.67,13.96-3.27Zm-55.29,20c-14.7,0-26.63-12.52-26.63-27.95s11.92-27.95,26.63-27.95,26.63,12.52,26.63,27.95-11.92,27.95-26.63,27.95Z"/>
  </g>
</svg>